<?xml version="1.0" encoding="UTF-8"?>
<svg xmlns:xhtml="http://www.w3.org/1999/xhtml" xmlns:xlink="http://www.w3.org/1999/xlink" xmlns="http://www.w3.org/2000/svg" id="mermaid-svg-4" width="100%" class="classDiagram" style="max-width: 100%;" viewBox="-43.687548828125 -43.687548828125 961.1260742187501 1331.37509765625" height="100%"><style>#mermaid-svg-4{font-family:"trebuchet ms",verdana,arial,sans-serif;font-size:16px;fill:#333;}@keyframes edge-animation-frame{from{stroke-dashoffset:0;}}@keyframes dash{to{stroke-dashoffset:0;}}#mermaid-svg-4 .edge-animation-slow{stroke-dasharray:9,5!important;stroke-dashoffset:900;animation:dash 50s linear infinite;stroke-linecap:round;}#mermaid-svg-4 .edge-animation-fast{stroke-dasharray:9,5!important;stroke-dashoffset:900;animation:dash 20s linear infinite;stroke-linecap:round;}#mermaid-svg-4 .error-icon{fill:#552222;}#mermaid-svg-4 .error-text{fill:#552222;stroke:#552222;}#mermaid-svg-4 .edge-thickness-normal{stroke-width:1px;}#mermaid-svg-4 .edge-thickness-thick{stroke-width:3.5px;}#mermaid-svg-4 .edge-pattern-solid{stroke-dasharray:0;}#mermaid-svg-4 .edge-thickness-invisible{stroke-width:0;fill:none;}#mermaid-svg-4 .edge-pattern-dashed{stroke-dasharray:3;}#mermaid-svg-4 .edge-pattern-dotted{stroke-dasharray:2;}#mermaid-svg-4 .marker{fill:#333333;stroke:#333333;}#mermaid-svg-4 .marker.cross{stroke:#333333;}#mermaid-svg-4 svg{font-family:"trebuchet ms",verdana,arial,sans-serif;font-size:16px;}#mermaid-svg-4 p{margin:0;}#mermaid-svg-4 g.classGroup text{fill:#9370DB;stroke:none;font-family:"trebuchet ms",verdana,arial,sans-serif;font-size:10px;}#mermaid-svg-4 g.classGroup text .title{font-weight:bolder;}#mermaid-svg-4 .nodeLabel,#mermaid-svg-4 .edgeLabel{color:#131300;}#mermaid-svg-4 .edgeLabel .label rect{fill:#ECECFF;}#mermaid-svg-4 .label text{fill:#131300;}#mermaid-svg-4 .labelBkg{background:#ECECFF;}#mermaid-svg-4 .edgeLabel .label span{background:#ECECFF;}#mermaid-svg-4 .classTitle{font-weight:bolder;}#mermaid-svg-4 .node rect,#mermaid-svg-4 .node circle,#mermaid-svg-4 .node ellipse,#mermaid-svg-4 .node polygon,#mermaid-svg-4 .node path{fill:#ECECFF;stroke:#9370DB;stroke-width:1px;}#mermaid-svg-4 .divider{stroke:#9370DB;stroke-width:1;}#mermaid-svg-4 g.clickable{cursor:pointer;}#mermaid-svg-4 g.classGroup rect{fill:#ECECFF;stroke:#9370DB;}#mermaid-svg-4 g.classGroup line{stroke:#9370DB;stroke-width:1;}#mermaid-svg-4 .classLabel .box{stroke:none;stroke-width:0;fill:#ECECFF;opacity:0.5;}#mermaid-svg-4 .classLabel .label{fill:#9370DB;font-size:10px;}#mermaid-svg-4 .relation{stroke:#333333;stroke-width:1;fill:none;}#mermaid-svg-4 .dashed-line{stroke-dasharray:3;}#mermaid-svg-4 .dotted-line{stroke-dasharray:1 2;}#mermaid-svg-4 #compositionStart,#mermaid-svg-4 .composition{fill:#333333!important;stroke:#333333!important;stroke-width:1;}#mermaid-svg-4 #compositionEnd,#mermaid-svg-4 .composition{fill:#333333!important;stroke:#333333!important;stroke-width:1;}#mermaid-svg-4 #dependencyStart,#mermaid-svg-4 .dependency{fill:#333333!important;stroke:#333333!important;stroke-width:1;}#mermaid-svg-4 #dependencyStart,#mermaid-svg-4 .dependency{fill:#333333!important;stroke:#333333!important;stroke-width:1;}#mermaid-svg-4 #extensionStart,#mermaid-svg-4 .extension{fill:transparent!important;stroke:#333333!important;stroke-width:1;}#mermaid-svg-4 #extensionEnd,#mermaid-svg-4 .extension{fill:transparent!important;stroke:#333333!important;stroke-width:1;}#mermaid-svg-4 #aggregationStart,#mermaid-svg-4 .aggregation{fill:transparent!important;stroke:#333333!important;stroke-width:1;}#mermaid-svg-4 #aggregationEnd,#mermaid-svg-4 .aggregation{fill:transparent!important;stroke:#333333!important;stroke-width:1;}#mermaid-svg-4 #lollipopStart,#mermaid-svg-4 .lollipop{fill:#ECECFF!important;stroke:#333333!important;stroke-width:1;}#mermaid-svg-4 #lollipopEnd,#mermaid-svg-4 .lollipop{fill:#ECECFF!important;stroke:#333333!important;stroke-width:1;}#mermaid-svg-4 .edgeTerminals{font-size:11px;line-height:initial;}#mermaid-svg-4 .classTitleText{text-anchor:middle;font-size:18px;fill:#333;}#mermaid-svg-4 .label-icon{display:inline-block;height:1em;overflow:visible;vertical-align:-0.125em;}#mermaid-svg-4 .node .label-icon path{fill:currentColor;stroke:revert;stroke-width:revert;}#mermaid-svg-4 :root{--mermaid-font-family:"trebuchet ms",verdana,arial,sans-serif;}</style><g><defs><marker id="mermaid-svg-4_class-aggregationStart" class="marker aggregation class" refX="18" refY="7" markerWidth="190" markerHeight="240" orient="auto"><path d="M 18,7 L9,13 L1,7 L9,1 Z"/></marker></defs><defs><marker id="mermaid-svg-4_class-aggregationEnd" class="marker aggregation class" refX="1" refY="7" markerWidth="20" markerHeight="28" orient="auto"><path d="M 18,7 L9,13 L1,7 L9,1 Z"/></marker></defs><defs><marker id="mermaid-svg-4_class-extensionStart" class="marker extension class" refX="18" refY="7" markerWidth="190" markerHeight="240" orient="auto"><path d="M 1,7 L18,13 V 1 Z"/></marker></defs><defs><marker id="mermaid-svg-4_class-extensionEnd" class="marker extension class" refX="1" refY="7" markerWidth="20" markerHeight="28" orient="auto"><path d="M 1,1 V 13 L18,7 Z"/></marker></defs><defs><marker id="mermaid-svg-4_class-compositionStart" class="marker composition class" refX="18" refY="7" markerWidth="190" markerHeight="240" orient="auto"><path d="M 18,7 L9,13 L1,7 L9,1 Z"/></marker></defs><defs><marker id="mermaid-svg-4_class-compositionEnd" class="marker composition class" refX="1" refY="7" markerWidth="20" markerHeight="28" orient="auto"><path d="M 18,7 L9,13 L1,7 L9,1 Z"/></marker></defs><defs><marker id="mermaid-svg-4_class-dependencyStart" class="marker dependency class" refX="6" refY="7" markerWidth="190" markerHeight="240" orient="auto"><path d="M 5,7 L9,13 L1,7 L9,1 Z"/></marker></defs><defs><marker id="mermaid-svg-4_class-dependencyEnd" class="marker dependency class" refX="13" refY="7" markerWidth="20" markerHeight="28" orient="auto"><path d="M 18,7 L9,13 L14,7 L9,1 Z"/></marker></defs><defs><marker id="mermaid-svg-4_class-lollipopStart" class="marker lollipop class" refX="13" refY="7" markerWidth="190" markerHeight="240" orient="auto"><circle stroke="black" fill="transparent" cx="7" cy="7" r="6"/></marker></defs><defs><marker id="mermaid-svg-4_class-lollipopEnd" class="marker lollipop class" refX="1" refY="7" markerWidth="190" markerHeight="240" orient="auto"><circle stroke="black" fill="transparent" cx="7" cy="7" r="6"/></marker></defs><g class="root"><g class="clusters"/><g class="edgePaths"><path d="M261.34,801.822L242.819,822.018C224.299,842.215,187.257,882.607,168.737,906.97C150.216,931.333,150.216,939.667,150.216,943.833L150.216,948" id="id_MediaInfoData_VideoInfo_1" class="edge-thickness-normal edge-pattern-solid relation" style="" marker-start="url(#mermaid-svg-4_class-compositionStart)"/><path d="M433.892,915.982L433.839,917.151C433.786,918.321,433.681,920.661,433.628,927.997C433.575,935.333,433.575,947.667,433.575,953.833L433.575,960" id="id_MediaInfoData_AudioInfo_2" class="edge-thickness-normal edge-pattern-solid relation" style="" marker-start="url(#mermaid-svg-4_class-compositionStart)"/><path d="M634.959,807.968L652.007,827.14C669.055,846.312,703.151,884.656,720.199,919.995C737.247,955.333,737.247,987.667,737.247,1003.833L737.247,1020" id="id_MediaInfoData_SubtitleInfo_3" class="edge-thickness-normal edge-pattern-solid relation" style="" marker-start="url(#mermaid-svg-4_class-compositionStart)"/><path d="M448.252,242L448.252,247.167C448.252,252.333,448.252,262.667,448.252,272C448.252,281.333,448.252,289.667,448.252,293.833L448.252,298" id="id_OutputObject_MediaInfoData_4" class="edge-thickness-normal edge-pattern-solid relation" style="" marker-start="url(#mermaid-svg-4_class-aggregationStart)"/></g><g class="edgeLabels"><g class="edgeLabel"><g class="label" transform="translate(0, -12)"><foreignObject width="0" height="24"><div xmlns="http://www.w3.org/1999/xhtml" style="display: table-cell; white-space: nowrap; line-height: 1.5; max-width: 200px; text-align: center;" class="labelBkg"><span style=";display: inline-block" class="edgeLabel"></span></div></foreignObject></g></g><g class="edgeLabel"><g class="label" transform="translate(0, -12)"><foreignObject width="0" height="24"><div xmlns="http://www.w3.org/1999/xhtml" style="display: table-cell; white-space: nowrap; line-height: 1.5; max-width: 200px; text-align: center;" class="labelBkg"><span style=";display: inline-block" class="edgeLabel"></span></div></foreignObject></g></g><g class="edgeLabel"><g class="label" transform="translate(0, -12)"><foreignObject width="0" height="24"><div xmlns="http://www.w3.org/1999/xhtml" style="display: table-cell; white-space: nowrap; line-height: 1.5; max-width: 200px; text-align: center;" class="labelBkg"><span style=";display: inline-block" class="edgeLabel"></span></div></foreignObject></g></g><g class="edgeLabel"><g class="label" transform="translate(0, -12)"><foreignObject width="0" height="24"><div xmlns="http://www.w3.org/1999/xhtml" style="display: table-cell; white-space: nowrap; line-height: 1.5; max-width: 200px; text-align: center;" class="labelBkg"><span style=";display: inline-block" class="edgeLabel"></span></div></foreignObject></g></g></g><g class="nodes"><g class="node default" id="classId-TorrentFile-6" transform="translate(135.5390625, 128)"><g class="basic label-container"><path d="M-127.5390625 -120 L127.5390625 -120 L127.5390625 120 L-127.5390625 120" stroke="none" stroke-width="0" fill="#ECECFF" style=""/><path d="M-127.5390625 -120 C-56.387491828708036 -120, 14.764078842583928 -120, 127.5390625 -120 M-127.5390625 -120 C-36.56981778557076 -120, 54.399426928858475 -120, 127.5390625 -120 M127.5390625 -120 C127.5390625 -26.925276137780415, 127.5390625 66.14944772443917, 127.5390625 120 M127.5390625 -120 C127.5390625 -24.50974460697165, 127.5390625 70.9805107860567, 127.5390625 120 M127.5390625 120 C38.918802325846315 120, -49.70145784830737 120, -127.5390625 120 M127.5390625 120 C58.793221722447 120, -9.952619055105998 120, -127.5390625 120 M-127.5390625 120 C-127.5390625 43.520210248528656, -127.5390625 -32.95957950294269, -127.5390625 -120 M-127.5390625 120 C-127.5390625 53.02688939583345, -127.5390625 -13.9462212083331, -127.5390625 -120" stroke="#9370DB" stroke-width="1.3" fill="none" stroke-dasharray="0 0" style=""/></g><g class="annotation-group text" transform="translate(0, -96)"/><g class="label-group text" transform="translate(-41.1875, -96)"><g class="label" style="font-weight: bolder" transform="translate(0,-12)"><foreignObject width="82.375" height="24"><div xmlns="http://www.w3.org/1999/xhtml" style="display: table-cell; white-space: nowrap; line-height: 1.5; max-width: 131px; text-align: center;"><span class="nodeLabel markdown-node-label" style=""><p>TorrentFile</p></span></div></foreignObject></g></g><g class="members-group text" transform="translate(-115.5390625, -48)"><g class="label" style="" transform="translate(0,-12)"><foreignObject width="78.7109375" height="24"><div xmlns="http://www.w3.org/1999/xhtml" style="display: table-cell; white-space: nowrap; line-height: 1.5; max-width: 142px; text-align: center;"><span class="nodeLabel markdown-node-label" style=""><p>+string btih</p></span></div></foreignObject></g><g class="label" style="" transform="translate(0,12)"><foreignObject width="92.9375" height="24"><div xmlns="http://www.w3.org/1999/xhtml" style="display: table-cell; white-space: nowrap; line-height: 1.5; max-width: 155px; text-align: center;"><span class="nodeLabel markdown-node-label" style=""><p>+string name</p></span></div></foreignObject></g><g class="label" style="" transform="translate(0,36)"><foreignObject width="183.6640625" height="24"><div xmlns="http://www.w3.org/1999/xhtml" style="display: table-cell; white-space: nowrap; line-height: 1.5; max-width: 289px; text-align: center;"><span class="nodeLabel markdown-node-label" style=""><p>+vector&lt;string&gt; file_paths</p></span></div></foreignObject></g><g class="label" style="" transform="translate(0,60)"><foreignObject width="189.890625" height="24"><div xmlns="http://www.w3.org/1999/xhtml" style="display: table-cell; white-space: nowrap; line-height: 1.5; max-width: 293px; text-align: center;"><span class="nodeLabel markdown-node-label" style=""><p>+vector&lt;int64_t&gt; file_sizes</p></span></div></foreignObject></g><g class="label" style="" transform="translate(0,84)"><foreignObject width="129.421875" height="24"><div xmlns="http://www.w3.org/1999/xhtml" style="display: table-cell; white-space: nowrap; line-height: 1.5; max-width: 192px; text-align: center;"><span class="nodeLabel markdown-node-label" style=""><p>+int64_t total_size</p></span></div></foreignObject></g><g class="label" style="" transform="translate(0,108)"><foreignObject width="131.2109375" height="24"><div xmlns="http://www.w3.org/1999/xhtml" style="display: table-cell; white-space: nowrap; line-height: 1.5; max-width: 196px; text-align: center;"><span class="nodeLabel markdown-node-label" style=""><p>+path torrent_path</p></span></div></foreignObject></g></g><g class="methods-group text" transform="translate(-115.5390625, 120)"/><g class="divider" style=""><path d="M-127.5390625 -72 C-61.85191045908823 -72, 3.8352415818235386 -72, 127.5390625 -72 M-127.5390625 -72 C-71.35568589470722 -72, -15.172309289414457 -72, 127.5390625 -72" stroke="#9370DB" stroke-width="1.3" fill="none" stroke-dasharray="0 0" style=""/></g><g class="divider" style=""><path d="M-127.5390625 96 C-71.63211924925443 96, -15.725175998508874 96, 127.5390625 96 M-127.5390625 96 C-49.077167753884225 96, 29.38472699223155 96, 127.5390625 96" stroke="#9370DB" stroke-width="1.3" fill="none" stroke-dasharray="0 0" style=""/></g></g><g class="node default" id="classId-MediaInfoData-7" transform="translate(448.251953125, 598)"><g class="basic label-container"><path d="M-174.74609375 -300 L174.74609375 -300 L174.74609375 300 L-174.74609375 300" stroke="none" stroke-width="0" fill="#ECECFF" style=""/><path d="M-174.74609375 -300 C-71.45072148516843 -300, 31.84465077966314 -300, 174.74609375 -300 M-174.74609375 -300 C-46.05581786128204 -300, 82.63445802743593 -300, 174.74609375 -300 M174.74609375 -300 C174.74609375 -152.45098322700449, 174.74609375 -4.901966454008971, 174.74609375 300 M174.74609375 -300 C174.74609375 -152.3390792126388, 174.74609375 -4.678158425277616, 174.74609375 300 M174.74609375 300 C37.609512865904804 300, -99.52706801819039 300, -174.74609375 300 M174.74609375 300 C69.59990676614773 300, -35.54628021770455 300, -174.74609375 300 M-174.74609375 300 C-174.74609375 119.63925093805449, -174.74609375 -60.721498123891024, -174.74609375 -300 M-174.74609375 300 C-174.74609375 126.63739018186519, -174.74609375 -46.72521963626963, -174.74609375 -300" stroke="#9370DB" stroke-width="1.3" fill="none" stroke-dasharray="0 0" style=""/></g><g class="annotation-group text" transform="translate(0, -276)"/><g class="label-group text" transform="translate(-54.671875, -276)"><g class="label" style="font-weight: bolder" transform="translate(0,-12)"><foreignObject width="109.34375" height="24"><div xmlns="http://www.w3.org/1999/xhtml" style="display: table-cell; white-space: nowrap; line-height: 1.5; max-width: 160px; text-align: center;"><span class="nodeLabel markdown-node-label" style=""><p>MediaInfoData</p></span></div></foreignObject></g></g><g class="members-group text" transform="translate(-162.74609375, -228)"><g class="label" style="" transform="translate(0,-12)"><foreignObject width="270.8203125" height="24"><div xmlns="http://www.w3.org/1999/xhtml" style="display: table-cell; white-space: nowrap; line-height: 1.5; max-width: 342px; text-align: center;"><span class="nodeLabel markdown-node-label" style=""><p>+string originating_source_medium_id</p></span></div></foreignObject></g><g class="label" style="" transform="translate(0,12)"><foreignObject width="224.5625" height="24"><div xmlns="http://www.w3.org/1999/xhtml" style="display: table-cell; white-space: nowrap; line-height: 1.5; max-width: 295px; text-align: center;"><span class="nodeLabel markdown-node-label" style=""><p>+string originating_source_form</p></span></div></foreignObject></g><g class="label" style="" transform="translate(0,36)"><foreignObject width="240.5859375" height="24"><div xmlns="http://www.w3.org/1999/xhtml" style="display: table-cell; white-space: nowrap; line-height: 1.5; max-width: 313px; text-align: center;"><span class="nodeLabel markdown-node-label" style=""><p>+string originating_network_name</p></span></div></foreignObject></g><g class="label" style="" transform="translate(0,60)"><foreignObject width="240.5390625" height="24"><div xmlns="http://www.w3.org/1999/xhtml" style="display: table-cell; white-space: nowrap; line-height: 1.5; max-width: 310px; text-align: center;"><span class="nodeLabel markdown-node-label" style=""><p>+string format_commercial_if_any</p></span></div></foreignObject></g><g class="label" style="" transform="translate(0,84)"><foreignObject width="119.6328125" height="24"><div xmlns="http://www.w3.org/1999/xhtml" style="display: table-cell; white-space: nowrap; line-height: 1.5; max-width: 182px; text-align: center;"><span class="nodeLabel markdown-node-label" style=""><p>+int64_t file_size</p></span></div></foreignObject></g><g class="label" style="" transform="translate(0,108)"><foreignObject width="119.65625" height="24"><div xmlns="http://www.w3.org/1999/xhtml" style="display: table-cell; white-space: nowrap; line-height: 1.5; max-width: 185px; text-align: center;"><span class="nodeLabel markdown-node-label" style=""><p>+double duration</p></span></div></foreignObject></g><g class="label" style="" transform="translate(0,132)"><foreignObject width="171.2265625" height="24"><div xmlns="http://www.w3.org/1999/xhtml" style="display: table-cell; white-space: nowrap; line-height: 1.5; max-width: 236px; text-align: center;"><span class="nodeLabel markdown-node-label" style=""><p>+int64_t overall_bit_rate</p></span></div></foreignObject></g><g class="label" style="" transform="translate(0,156)"><foreignObject width="105.390625" height="24"><div xmlns="http://www.w3.org/1999/xhtml" style="display: table-cell; white-space: nowrap; line-height: 1.5; max-width: 169px; text-align: center;"><span class="nodeLabel markdown-node-label" style=""><p>+string domain</p></span></div></foreignObject></g><g class="label" style="" transform="translate(0,180)"><foreignObject width="119.6171875" height="24"><div xmlns="http://www.w3.org/1999/xhtml" style="display: table-cell; white-space: nowrap; line-height: 1.5; max-width: 186px; text-align: center;"><span class="nodeLabel markdown-node-label" style=""><p>+string collection</p></span></div></foreignObject></g><g class="label" style="" transform="translate(0,204)"><foreignObject width="104.5078125" height="24"><div xmlns="http://www.w3.org/1999/xhtml" style="display: table-cell; white-space: nowrap; line-height: 1.5; max-width: 168px; text-align: center;"><span class="nodeLabel markdown-node-label" style=""><p>+string season</p></span></div></foreignObject></g><g class="label" style="" transform="translate(0,228)"><foreignObject width="152.53125" height="24"><div xmlns="http://www.w3.org/1999/xhtml" style="display: table-cell; white-space: nowrap; line-height: 1.5; max-width: 221px; text-align: center;"><span class="nodeLabel markdown-node-label" style=""><p>+string distributed_by</p></span></div></foreignObject></g><g class="label" style="" transform="translate(0,252)"><foreignObject width="93.8359375" height="24"><div xmlns="http://www.w3.org/1999/xhtml" style="display: table-cell; white-space: nowrap; line-height: 1.5; max-width: 157px; text-align: center;"><span class="nodeLabel markdown-node-label" style=""><p>+string genre</p></span></div></foreignObject></g><g class="label" style="" transform="translate(0,276)"><foreignObject width="144.5390625" height="24"><div xmlns="http://www.w3.org/1999/xhtml" style="display: table-cell; white-space: nowrap; line-height: 1.5; max-width: 212px; text-align: center;"><span class="nodeLabel markdown-node-label" style=""><p>+string content_type</p></span></div></foreignObject></g><g class="label" style="" transform="translate(0,300)"><foreignObject width="96.4921875" height="24"><div xmlns="http://www.w3.org/1999/xhtml" style="display: table-cell; white-space: nowrap; line-height: 1.5; max-width: 161px; text-align: center;"><span class="nodeLabel markdown-node-label" style=""><p>+string owner</p></span></div></foreignObject></g><g class="label" style="" transform="translate(0,324)"><foreignObject width="105.3828125" height="24"><div xmlns="http://www.w3.org/1999/xhtml" style="display: table-cell; white-space: nowrap; line-height: 1.5; max-width: 171px; text-align: center;"><span class="nodeLabel markdown-node-label" style=""><p>+string country</p></span></div></foreignObject></g><g class="label" style="" transform="translate(0,348)"><foreignObject width="118.7109375" height="24"><div xmlns="http://www.w3.org/1999/xhtml" style="display: table-cell; white-space: nowrap; line-height: 1.5; max-width: 184px; text-align: center;"><span class="nodeLabel markdown-node-label" style=""><p>+string comment</p></span></div></foreignObject></g><g class="label" style="" transform="translate(0,372)"><foreignObject width="118.7578125" height="24"><div xmlns="http://www.w3.org/1999/xhtml" style="display: table-cell; white-space: nowrap; line-height: 1.5; max-width: 183px; text-align: center;"><span class="nodeLabel markdown-node-label" style=""><p>+string language</p></span></div></foreignObject></g><g class="label" style="" transform="translate(0,396)"><foreignObject width="119.359375" height="24"><div xmlns="http://www.w3.org/1999/xhtml" style="display: table-cell; white-space: nowrap; line-height: 1.5; max-width: 184px; text-align: center;"><span class="nodeLabel markdown-node-label" style=""><p>+VideoInfo video</p></span></div></foreignObject></g><g class="label" style="" transform="translate(0,420)"><foreignObject width="120.546875" height="24"><div xmlns="http://www.w3.org/1999/xhtml" style="display: table-cell; white-space: nowrap; line-height: 1.5; max-width: 184px; text-align: center;"><span class="nodeLabel markdown-node-label" style=""><p>+AudioInfo audio</p></span></div></foreignObject></g><g class="label" style="" transform="translate(0,444)"><foreignObject width="144.5390625" height="24"><div xmlns="http://www.w3.org/1999/xhtml" style="display: table-cell; white-space: nowrap; line-height: 1.5; max-width: 211px; text-align: center;"><span class="nodeLabel markdown-node-label" style=""><p>+SubtitleInfo subtitle</p></span></div></foreignObject></g><g class="label" style="" transform="translate(0,468)"><foreignObject width="232.59375" height="24"><div xmlns="http://www.w3.org/1999/xhtml" style="display: table-cell; white-space: nowrap; line-height: 1.5; max-width: 302px; text-align: center;"><span class="nodeLabel markdown-node-label" style=""><p>+string video_creation_metadata</p></span></div></foreignObject></g></g><g class="methods-group text" transform="translate(-162.74609375, 300)"/><g class="divider" style=""><path d="M-174.74609375 -252 C-46.269290661449105 -252, 82.20751242710179 -252, 174.74609375 -252 M-174.74609375 -252 C-57.94306687855786 -252, 58.859959992884285 -252, 174.74609375 -252" stroke="#9370DB" stroke-width="1.3" fill="none" stroke-dasharray="0 0" style=""/></g><g class="divider" style=""><path d="M-174.74609375 276 C-56.45289145840947 276, 61.840310833181064 276, 174.74609375 276 M-174.74609375 276 C-84.6693111973827 276, 5.407471355234605 276, 174.74609375 276" stroke="#9370DB" stroke-width="1.3" fill="none" stroke-dasharray="0 0" style=""/></g></g><g class="node default" id="classId-VideoInfo-8" transform="translate(150.2158203125, 1092)"><g class="basic label-container"><path d="M-108.19140625 -144 L108.19140625 -144 L108.19140625 144 L-108.19140625 144" stroke="none" stroke-width="0" fill="#ECECFF" style=""/><path d="M-108.19140625 -144 C-54.396643152245616 -144, -0.6018800544912324 -144, 108.19140625 -144 M-108.19140625 -144 C-35.5911055409932 -144, 37.009195168013605 -144, 108.19140625 -144 M108.19140625 -144 C108.19140625 -75.65348143187947, 108.19140625 -7.30696286375894, 108.19140625 144 M108.19140625 -144 C108.19140625 -66.79574244445583, 108.19140625 10.408515111088349, 108.19140625 144 M108.19140625 144 C40.416144566468574 144, -27.35911711706285 144, -108.19140625 144 M108.19140625 144 C52.837892672432965 144, -2.515620905134071 144, -108.19140625 144 M-108.19140625 144 C-108.19140625 51.06273425169299, -108.19140625 -41.874531496614026, -108.19140625 -144 M-108.19140625 144 C-108.19140625 85.25952048986335, -108.19140625 26.51904097972671, -108.19140625 -144" stroke="#9370DB" stroke-width="1.3" fill="none" stroke-dasharray="0 0" style=""/></g><g class="annotation-group text" transform="translate(0, -120)"/><g class="label-group text" transform="translate(-36.296875, -120)"><g class="label" style="font-weight: bolder" transform="translate(0,-12)"><foreignObject width="72.59375" height="24"><div xmlns="http://www.w3.org/1999/xhtml" style="display: table-cell; white-space: nowrap; line-height: 1.5; max-width: 122px; text-align: center;"><span class="nodeLabel markdown-node-label" style=""><p>VideoInfo</p></span></div></foreignObject></g></g><g class="members-group text" transform="translate(-96.19140625, -72)"><g class="label" style="" transform="translate(0,-12)"><foreignObject width="95.609375" height="24"><div xmlns="http://www.w3.org/1999/xhtml" style="display: table-cell; white-space: nowrap; line-height: 1.5; max-width: 160px; text-align: center;"><span class="nodeLabel markdown-node-label" style=""><p>+string codec</p></span></div></foreignObject></g><g class="label" style="" transform="translate(0,12)"><foreignObject width="156.0859375" height="24"><div xmlns="http://www.w3.org/1999/xhtml" style="display: table-cell; white-space: nowrap; line-height: 1.5; max-width: 222px; text-align: center;"><span class="nodeLabel markdown-node-label" style=""><p>+string codec_version</p></span></div></foreignObject></g><g class="label" style="" transform="translate(0,36)"><foreignObject width="106.296875" height="24"><div xmlns="http://www.w3.org/1999/xhtml" style="display: table-cell; white-space: nowrap; line-height: 1.5; max-width: 170px; text-align: center;"><span class="nodeLabel markdown-node-label" style=""><p>+int64_t bitrate</p></span></div></foreignObject></g><g class="label" style="" transform="translate(0,60)"><foreignObject width="68.0390625" height="24"><div xmlns="http://www.w3.org/1999/xhtml" style="display: table-cell; white-space: nowrap; line-height: 1.5; max-width: 131px; text-align: center;"><span class="nodeLabel markdown-node-label" style=""><p>+int width</p></span></div></foreignObject></g><g class="label" style="" transform="translate(0,84)"><foreignObject width="74.28125" height="24"><div xmlns="http://www.w3.org/1999/xhtml" style="display: table-cell; white-space: nowrap; line-height: 1.5; max-width: 136px; text-align: center;"><span class="nodeLabel markdown-node-label" style=""><p>+int height</p></span></div></foreignObject></g><g class="label" style="" transform="translate(0,108)"><foreignObject width="137.4140625" height="24"><div xmlns="http://www.w3.org/1999/xhtml" style="display: table-cell; white-space: nowrap; line-height: 1.5; max-width: 202px; text-align: center;"><span class="nodeLabel markdown-node-label" style=""><p>+int sampled_width</p></span></div></foreignObject></g><g class="label" style="" transform="translate(0,132)"><foreignObject width="143.65625" height="24"><div xmlns="http://www.w3.org/1999/xhtml" style="display: table-cell; white-space: nowrap; line-height: 1.5; max-width: 208px; text-align: center;"><span class="nodeLabel markdown-node-label" style=""><p>+int sampled_height</p></span></div></foreignObject></g><g class="label" style="" transform="translate(0,156)"><foreignObject width="130.28125" height="24"><div xmlns="http://www.w3.org/1999/xhtml" style="display: table-cell; white-space: nowrap; line-height: 1.5; max-width: 195px; text-align: center;"><span class="nodeLabel markdown-node-label" style=""><p>+string frame_rate</p></span></div></foreignObject></g></g><g class="methods-group text" transform="translate(-96.19140625, 144)"/><g class="divider" style=""><path d="M-108.19140625 -96 C-60.979478173000324 -96, -13.767550096000647 -96, 108.19140625 -96 M-108.19140625 -96 C-31.605461666010143 -96, 44.980482917979714 -96, 108.19140625 -96" stroke="#9370DB" stroke-width="1.3" fill="none" stroke-dasharray="0 0" style=""/></g><g class="divider" style=""><path d="M-108.19140625 120 C-43.8893129877615 120, 20.412780274477 120, 108.19140625 120 M-108.19140625 120 C-38.238471855283905 120, 31.71446253943219 120, 108.19140625 120" stroke="#9370DB" stroke-width="1.3" fill="none" stroke-dasharray="0 0" style=""/></g></g><g class="node default" id="classId-AudioInfo-9" transform="translate(433.5751953125, 1092)"><g class="basic label-container"><path d="M-125.16796875 -132 L125.16796875 -132 L125.16796875 132 L-125.16796875 132" stroke="none" stroke-width="0" fill="#ECECFF" style=""/><path d="M-125.16796875 -132 C-60.74858046187536 -132, 3.6708078262492734 -132, 125.16796875 -132 M-125.16796875 -132 C-40.49310968814642 -132, 44.18174937370716 -132, 125.16796875 -132 M125.16796875 -132 C125.16796875 -33.32072821626235, 125.16796875 65.3585435674753, 125.16796875 132 M125.16796875 -132 C125.16796875 -47.92040243954226, 125.16796875 36.159195120915484, 125.16796875 132 M125.16796875 132 C50.517575284610416 132, -24.132818180779168 132, -125.16796875 132 M125.16796875 132 C51.66297454032366 132, -21.84201966935268 132, -125.16796875 132 M-125.16796875 132 C-125.16796875 45.39663155944288, -125.16796875 -41.20673688111424, -125.16796875 -132 M-125.16796875 132 C-125.16796875 29.366880178874567, -125.16796875 -73.26623964225087, -125.16796875 -132" stroke="#9370DB" stroke-width="1.3" fill="none" stroke-dasharray="0 0" style=""/></g><g class="annotation-group text" transform="translate(0, -108)"/><g class="label-group text" transform="translate(-37.3203125, -108)"><g class="label" style="font-weight: bolder" transform="translate(0,-12)"><foreignObject width="74.640625" height="24"><div xmlns="http://www.w3.org/1999/xhtml" style="display: table-cell; white-space: nowrap; line-height: 1.5; max-width: 123px; text-align: center;"><span class="nodeLabel markdown-node-label" style=""><p>AudioInfo</p></span></div></foreignObject></g></g><g class="members-group text" transform="translate(-113.16796875, -60)"><g class="label" style="" transform="translate(0,-12)"><foreignObject width="95.609375" height="24"><div xmlns="http://www.w3.org/1999/xhtml" style="display: table-cell; white-space: nowrap; line-height: 1.5; max-width: 160px; text-align: center;"><span class="nodeLabel markdown-node-label" style=""><p>+string codec</p></span></div></foreignObject></g><g class="label" style="" transform="translate(0,12)"><foreignObject width="156.0859375" height="24"><div xmlns="http://www.w3.org/1999/xhtml" style="display: table-cell; white-space: nowrap; line-height: 1.5; max-width: 222px; text-align: center;"><span class="nodeLabel markdown-node-label" style=""><p>+string codec_version</p></span></div></foreignObject></g><g class="label" style="" transform="translate(0,36)"><foreignObject width="106.296875" height="24"><div xmlns="http://www.w3.org/1999/xhtml" style="display: table-cell; white-space: nowrap; line-height: 1.5; max-width: 170px; text-align: center;"><span class="nodeLabel markdown-node-label" style=""><p>+int64_t bitrate</p></span></div></foreignObject></g><g class="label" style="" transform="translate(0,60)"><foreignObject width="131.1875" height="24"><div xmlns="http://www.w3.org/1999/xhtml" style="display: table-cell; white-space: nowrap; line-height: 1.5; max-width: 194px; text-align: center;"><span class="nodeLabel markdown-node-label" style=""><p>+int sampling_rate</p></span></div></foreignObject></g><g class="label" style="" transform="translate(0,84)"><foreignObject width="116.9609375" height="24"><div xmlns="http://www.w3.org/1999/xhtml" style="display: table-cell; white-space: nowrap; line-height: 1.5; max-width: 181px; text-align: center;"><span class="nodeLabel markdown-node-label" style=""><p>+string channels</p></span></div></foreignObject></g><g class="label" style="" transform="translate(0,108)"><foreignObject width="96.5234375" height="24"><div xmlns="http://www.w3.org/1999/xhtml" style="display: table-cell; white-space: nowrap; line-height: 1.5; max-width: 159px; text-align: center;"><span class="nodeLabel markdown-node-label" style=""><p>+int bit_depth</p></span></div></foreignObject></g><g class="label" style="" transform="translate(0,132)"><foreignObject width="189.015625" height="24"><div xmlns="http://www.w3.org/1999/xhtml" style="display: table-cell; white-space: nowrap; line-height: 1.5; max-width: 294px; text-align: center;"><span class="nodeLabel markdown-node-label" style=""><p>+vector&lt;string&gt; languages</p></span></div></foreignObject></g></g><g class="methods-group text" transform="translate(-113.16796875, 132)"/><g class="divider" style=""><path d="M-125.16796875 -84 C-30.36312845250292 -84, 64.44171184499416 -84, 125.16796875 -84 M-125.16796875 -84 C-74.21790660246796 -84, -23.26784445493591 -84, 125.16796875 -84" stroke="#9370DB" stroke-width="1.3" fill="none" stroke-dasharray="0 0" style=""/></g><g class="divider" style=""><path d="M-125.16796875 108 C-42.83169865621548 108, 39.50457143756904 108, 125.16796875 108 M-125.16796875 108 C-35.14429588350261 108, 54.879376982994785 108, 125.16796875 108" stroke="#9370DB" stroke-width="1.3" fill="none" stroke-dasharray="0 0" style=""/></g></g><g class="node default" id="classId-SubtitleInfo-10" transform="translate(737.2470703125, 1092)"><g class="basic label-container"><path d="M-128.50390625 -72 L128.50390625 -72 L128.50390625 72 L-128.50390625 72" stroke="none" stroke-width="0" fill="#ECECFF" style=""/><path d="M-128.50390625 -72 C-60.75959594239835 -72, 6.984714365203303 -72, 128.50390625 -72 M-128.50390625 -72 C-44.912642864960006 -72, 38.67862052007999 -72, 128.50390625 -72 M128.50390625 -72 C128.50390625 -34.5023941874536, 128.50390625 2.995211625092793, 128.50390625 72 M128.50390625 -72 C128.50390625 -21.321135418802882, 128.50390625 29.357729162394236, 128.50390625 72 M128.50390625 72 C68.77974653947473 72, 9.055586828949444 72, -128.50390625 72 M128.50390625 72 C59.34629434510171 72, -9.811317559796578 72, -128.50390625 72 M-128.50390625 72 C-128.50390625 43.02071795290728, -128.50390625 14.041435905814566, -128.50390625 -72 M-128.50390625 72 C-128.50390625 35.91573905751466, -128.50390625 -0.1685218849706871, -128.50390625 -72" stroke="#9370DB" stroke-width="1.3" fill="none" stroke-dasharray="0 0" style=""/></g><g class="annotation-group text" transform="translate(0, -48)"/><g class="label-group text" transform="translate(-43.9921875, -48)"><g class="label" style="font-weight: bolder" transform="translate(0,-12)"><foreignObject width="87.984375" height="24"><div xmlns="http://www.w3.org/1999/xhtml" style="display: table-cell; white-space: nowrap; line-height: 1.5; max-width: 136px; text-align: center;"><span class="nodeLabel markdown-node-label" style=""><p>SubtitleInfo</p></span></div></foreignObject></g></g><g class="members-group text" transform="translate(-116.50390625, 0)"><g class="label" style="" transform="translate(0,-12)"><foreignObject width="189.015625" height="24"><div xmlns="http://www.w3.org/1999/xhtml" style="display: table-cell; white-space: nowrap; line-height: 1.5; max-width: 294px; text-align: center;"><span class="nodeLabel markdown-node-label" style=""><p>+vector&lt;string&gt; languages</p></span></div></foreignObject></g><g class="label" style="" transform="translate(0,12)"><foreignObject width="98.2578125" height="24"><div xmlns="http://www.w3.org/1999/xhtml" style="display: table-cell; white-space: nowrap; line-height: 1.5; max-width: 163px; text-align: center;"><span class="nodeLabel markdown-node-label" style=""><p>+string format</p></span></div></foreignObject></g></g><g class="methods-group text" transform="translate(-116.50390625, 72)"/><g class="divider" style=""><path d="M-128.50390625 -24 C-61.09347468591375 -24, 6.316956878172505 -24, 128.50390625 -24 M-128.50390625 -24 C-47.15477110209514 -24, 34.19436404580972 -24, 128.50390625 -24" stroke="#9370DB" stroke-width="1.3" fill="none" stroke-dasharray="0 0" style=""/></g><g class="divider" style=""><path d="M-128.50390625 48 C-71.94921769311512 48, -15.394529136230233 48, 128.50390625 48 M-128.50390625 48 C-29.69300254853988 48, 69.11790115292024 48, 128.50390625 48" stroke="#9370DB" stroke-width="1.3" fill="none" stroke-dasharray="0 0" style=""/></g></g><g class="node default" id="classId-OutputObject-11" transform="translate(448.251953125, 128)"><g class="basic label-container"><path d="M-135.173828125 -96 L135.173828125 -96 L135.173828125 96 L-135.173828125 96" stroke="none" stroke-width="0" fill="#ECECFF" style=""/><path d="M-135.173828125 -96 C-80.06163106751701 -96, -24.949434010034025 -96, 135.173828125 -96 M-135.173828125 -96 C-70.09153562023305 -96, -5.0092431154660915 -96, 135.173828125 -96 M135.173828125 -96 C135.173828125 -38.06151838497622, 135.173828125 19.876963230047565, 135.173828125 96 M135.173828125 -96 C135.173828125 -48.18797655135111, 135.173828125 -0.37595310270222626, 135.173828125 96 M135.173828125 96 C63.40285541928843 96, -8.368117286423143 96, -135.173828125 96 M135.173828125 96 C67.10994223688188 96, -0.9539436512362442 96, -135.173828125 96 M-135.173828125 96 C-135.173828125 45.408655421864374, -135.173828125 -5.182689156271252, -135.173828125 -96 M-135.173828125 96 C-135.173828125 32.28608674688172, -135.173828125 -31.427826506236556, -135.173828125 -96" stroke="#9370DB" stroke-width="1.3" fill="none" stroke-dasharray="0 0" style=""/></g><g class="annotation-group text" transform="translate(0, -72)"/><g class="label-group text" transform="translate(-51.10546875, -72)"><g class="label" style="font-weight: bolder" transform="translate(0,-12)"><foreignObject width="102.2109375" height="24"><div xmlns="http://www.w3.org/1999/xhtml" style="display: table-cell; white-space: nowrap; line-height: 1.5; max-width: 151px; text-align: center;"><span class="nodeLabel markdown-node-label" style=""><p>OutputObject</p></span></div></foreignObject></g></g><g class="members-group text" transform="translate(-123.173828125, -24)"><g class="label" style="" transform="translate(0,-12)"><foreignObject width="78.7109375" height="24"><div xmlns="http://www.w3.org/1999/xhtml" style="display: table-cell; white-space: nowrap; line-height: 1.5; max-width: 142px; text-align: center;"><span class="nodeLabel markdown-node-label" style=""><p>+string btih</p></span></div></foreignObject></g><g class="label" style="" transform="translate(0,12)"><foreignObject width="92.9375" height="24"><div xmlns="http://www.w3.org/1999/xhtml" style="display: table-cell; white-space: nowrap; line-height: 1.5; max-width: 155px; text-align: center;"><span class="nodeLabel markdown-node-label" style=""><p>+string name</p></span></div></foreignObject></g><g class="label" style="" transform="translate(0,36)"><foreignObject width="84.0546875" height="24"><div xmlns="http://www.w3.org/1999/xhtml" style="display: table-cell; white-space: nowrap; line-height: 1.5; max-width: 147px; text-align: center;"><span class="nodeLabel markdown-node-label" style=""><p>+string path</p></span></div></foreignObject></g><g class="label" style="" transform="translate(0,60)"><foreignObject width="195.2421875" height="24"><div xmlns="http://www.w3.org/1999/xhtml" style="display: table-cell; white-space: nowrap; line-height: 1.5; max-width: 264px; text-align: center;"><span class="nodeLabel markdown-node-label" style=""><p>+object technical_metadata</p></span></div></foreignObject></g></g><g class="methods-group text" transform="translate(-123.173828125, 96)"/><g class="divider" style=""><path d="M-135.173828125 -48 C-48.53770673007824 -48, 38.09841466484352 -48, 135.173828125 -48 M-135.173828125 -48 C-73.87366555800304 -48, -12.573502991006066 -48, 135.173828125 -48" stroke="#9370DB" stroke-width="1.3" fill="none" stroke-dasharray="0 0" style=""/></g><g class="divider" style=""><path d="M-135.173828125 72 C-57.82492338916117 72, 19.523981346677658 72, 135.173828125 72 M-135.173828125 72 C-75.48999140057742 72, -15.806154676154833 72, 135.173828125 72" stroke="#9370DB" stroke-width="1.3" fill="none" stroke-dasharray="0 0" style=""/></g></g></g></g></g></svg>